<svg id="trashcan-icon" xmlns="http://www.w3.org/2000/svg" viewBox="0 0 392.7 448">
    <g id="trashcan">
        <path id="trashcan-silhouette"
            d="M392.1,80.7c-1-5-7-10.3-12.2-10.8l-73.5-.5c-18.7-23.6-26.1-61.7-59-69.5h-102c-32.9,7.3-40.2,46.1-59,69.5l-73.5.5c-5.2.5-11.2,5.8-12.2,10.8-.7,3.6-.7,16-.2,19.7.6,3.8,6.9,11.6,10.4,11.6h17.5v286.5c0,22.6,26.9,47.6,49,49.5h238c19.2-3.5,35.9-14.6,43.9-32.6,1.7-3.8,5.1-13,5.1-16.9V112h17.5c3.5,0,9.8-7.8,10.4-11.6.6-3.7.6-16.1-.2-19.7ZM150.9,44c.7-.7,1.4-1.3,2.4-1.6l85.3-.2c1.3.3,2.3.9,3.2,1.8,5.4,5.8,9.9,19.4,15.5,26h-122c5.6-6.5,10.1-20.1,15.5-26ZM322.3,394.5c0,3.5-6.2,10.4-10.2,10.8l-228.3.7c-4.4.8-13.5-6.8-13.5-10.5V112h252v282.5Z"
            fill="#01d5dc" />
        <g id="trashcan-lines">
            <path id="line3"
                d="M210.4,167.5v183c-2,18.2-26.1,17.8-28.1,0v-184.1c.5-5.2,5.7-11.2,10.8-12.2,8.7-1.8,16.7,4.5,17.3,13.2Z"
                fill="#01d5dc" />
            <path id="line2"
                d="M280.4,167.5v183c-2,18.2-26.1,17.8-28.1,0v-184.1c.5-5.2,5.7-11.2,10.8-12.2,8.7-1.8,16.7,4.5,17.3,13.2Z"
                fill="#01d5dc" />
            <path id="line1"
                d="M140.4,167.5v183c-1.7,15.5-21,18.5-27.3,4.2l-.8-188.2c.5-5.2,5.7-11.2,10.8-12.2,8.7-1.8,16.7,4.5,17.3,13.2Z"
                fill="#01d5dc" />
        </g>
    </g>
</svg>