<svg id="go-back" xmlns="http://www.w3.org/2000/svg" viewBox="0 0 402.7 352.1" className={className}>
    <g id="go-back">
        <g id="back-arrow">
            <path
                d="M206.3,333.4c0,.8-3.1,7-4,8-5,6-14.9,6.8-20.9,1.9-54.8-52-114.4-99.3-168.7-151.6C7.4,186.6-.2,180.8,0,172.9s6.7-12.4,11.6-17.1C66.1,102.9,126.5,55.6,181.4,3.1c6.2-4.6,15.9-4.1,20.9,1.9s4,7.2,4,8v67.4c25.7,1.2,52.8-2.5,78.1,2.3,62.8,12,113.9,68.6,117.6,132.9,2.3,40.1-1.8,82.5,0,122.8-3,16.7-26,18.7-33.1,3.2-10.7-23.5-12.9-36.5-34.8-54-37.4-29.8-83.2-19.9-127.7-21.5v67.4ZM38.6,172.7l136.7,123.2v-48.4c0-3.1,7.9-12.4,12.5-11.5,42.7,3,91-7.1,131.5,8.2,19.9,7.6,36.8,20.7,51.6,35.7v-67.4c0-21.1-19.1-54.2-33.9-68.9-42.2-41.9-95.7-32.6-150.2-33.5-4.1.4-11.5-8.5-11.5-11.4v-48.4S38.6,172.7,38.6,172.7Z"
                fill="#01d5dc" />
        </g>
    </g>
</svg>