<svg id="Layer_2" xmlns="http://www.w3.org/2000/svg" viewBox="0 0 434.7 362.6">
    <g id="move-object">
        <g id="move-item">
            <path id="folder"
                d="M24.8,17C33.4,8.5,45.1,2.9,57.1,1.1c37.6,2.6,80.2-3.6,117.2,0,39.3,3.9,46.7,52.6,93.9,55.5s81-3.6,118.2,0c32.2,3.1,49.6,32.8,48.3,63-2.9,63.3-14.3,128.3-17.5,191.9-2.6,26.7-23.2,47.9-49.8,51H67.5c-26.6-3-47.4-24.3-49.8-51C14.5,248,3,183.1.1,119.7c-.6-12.1.4-20.3,5.1-31.5s4-5.5,4.5-8.6-.8-5.6-.9-8.6c-.4-21.6-.2-37.9,16-54ZM205.2,56.7c-9.1-8.6-19.4-23.6-32-26.7-34.4-.3-72.4-3.4-106.7-1.1-13.3.9-24.8,6.6-28.5,20.2-.4,1.6-2.3,10-.1,10.3,2.1-.1,7.1-2.6,8.6-2.6h158.6ZM54.7,84.8c-15.1,1.6-25.6,11.7-26.3,27.1l17.8,198.9c2.6,14.9,13.4,22.9,28.1,24,98-.9,196.4,1.7,294.2-1.3,14.3-4.3,20.2-16.1,20.8-30.5,2.8-60.5,13.8-122.2,16.5-182.4,1-21.3-5.7-33.9-28.2-36.1l-323,.3Z"
                fill="#01d5dc" />
            <path id="arrow"
                d="M217.4,227c-1.4-2.2-23.2.6-27,1.3-36.1,6.5-67.6,32.1-83.4,64.8-1.4.2-.9-1.2-.9-2.2.3-21.9,12.7-61.6,23.3-80.9,18.4-33.3,49.1-52.4,87.9-50.7v-24.8c0-.3,2.1-3.7,2.6-4.3,3.6-4.6,8.3-4.8,13.7-3.2l89.7,55.4c6.4,4.5,7.5,14.5,1.7,19.9l-91.7,56.9c-4.5,3.7-16-2.6-16-7.3v-24.8Z"
                fill="#01d5dc" />
        </g>
    </g>
</svg>